<svg xmlns="http://www.w3.org/2000/svg" viewBox="0 0 640 480" width="640" height="480">
	<style>
		tspan { white-space:pre }
		.shp0 { fill: #301303 } 
		.shp1 { fill: #8f3908 } 
		.txt2 { font-size: 18px;fill: #ffffff;font-weight: 700;font-family: "Hack-Bold", "Hack";text-anchor: middle } 
		.txt3 { font-size: 42px;fill: #ffffff;font-weight: 700;font-family: "Rokkitt-Bold", "Rokkitt";text-anchor: middle } 
	</style>
	<path id="Background" class="shp0" d="M0 0L640 0L640 480L0 480L0 0Z" />
	<g id="anchor">
		<path id="Layer" fill-rule="evenodd" class="shp1" d="M136.46 138.02C134.69 139.79 135.87 148.63 138.23 150.39C139.4 151.57 146.47 152.75 155.31 153.93C169.44 155.69 170.62 155.69 174.16 153.93C180.05 149.8 182.4 152.16 182.4 162.76C182.4 172.19 180.05 175.13 175.33 172.19C172.98 171.01 169.44 171.01 158.84 171.6C142.35 173.36 139.4 174.54 138.23 179.25C137.05 183.38 138.23 248.75 139.99 271.73C141.17 288.81 142.94 298.23 145.88 302.35C148.24 304.71 160.61 308.83 166.5 308.83C177.69 308.24 191.24 300 207.73 282.33C210.08 279.97 211.26 278.79 213.03 277.03C206.55 274.67 196.54 273.49 196.54 273.49L231.29 259.36C231.29 259.36 228.93 301.76 227.75 304.12C226.58 305.3 224.81 293.52 221.28 285.27C220.69 286.45 220.69 287.04 220.1 288.22C203.61 321.2 188.88 334.16 166.5 336.52C154.72 337.69 140.58 341.23 136.46 343C135.28 344.17 132.34 347.12 130.57 350.65C128.8 353.6 126.45 356.54 125.86 356.54C124.68 356.54 122.32 353.6 120.56 350.65C118.79 347.12 116.43 344.17 114.67 343C111.13 341.23 97 337.69 85.22 336.52C64.01 334.16 49.88 322.38 33.97 293.52C31.03 301.18 29.26 311.19 28.67 310.01C27.49 307.65 25.14 265.84 25.14 265.84L59.89 279.97C59.89 279.97 50.47 280.56 43.99 282.92C60.48 300 74.03 308.24 84.63 308.83C91.11 308.83 103.48 304.71 105.24 302.35C108.19 298.23 110.54 288.81 111.72 271.73C112.9 248.75 114.08 183.38 113.49 179.25C112.31 174.54 109.37 173.36 92.87 171.6C82.27 171.01 78.74 171.01 76.38 172.19C71.08 175.13 69.31 172.19 69.31 162.76C69.31 152.16 71.08 149.8 77.56 153.93C80.5 155.69 81.68 155.69 96.41 153.93C104.65 152.75 112.31 151.57 113.49 150.39C115.26 148.63 117.02 139.79 115.26 138.02C110.54 133.9 118.2 123.89 125.86 123.89C133.51 123.89 140.58 133.9 136.46 138.02ZM121.73 135.67C122.91 138.61 129.39 137.43 129.39 133.9C129.39 132.13 128.8 131.54 126.45 130.95C125.86 130.95 125.86 130.95 125.27 130.95C122.32 130.95 121.15 132.72 121.73 135.67Z" />
	</g>
	<text id="And it opened up my mind!" style="transform: matrix(1,0,0,1,409,248.16)" >
		<tspan x="0" y="0" class="txt2">Lo que no es normal es que no te infomes</tspan>
	</text>
	<text id="No saber algo es normal. " style="transform: matrix(1,0,0,1,410,220.76)" >
		<tspan x="0" y="0" class="txt3">No saber algo es normal.</tspan>
	</text>
</svg>