<svg xmlns="http://www.w3.org/2000/svg" viewBox="0 0 640 480" width="640" height="480">
	<style>
		tspan { white-space:pre }
		.shp0 { fill: #2c7c1d } 
		.shp1 { fill: #a2e695 } 
		.txt2 { font-size: 20px;fill: #ffffff;font-weight: 700;font-family: "ZillaSlab-Bold", "Zilla Slab";text-anchor: middle } 
		.txt3 { font-size: 30px;fill: #ffffff;font-weight: 400;font-family: "Lack-Regular", "Lack";text-anchor: middle } 
	</style>
	<path id="Background" class="shp0" d="M0 0L640 0L640 480L0 480L0 0Z" />
	<g id="skull">
		<path id="Layer" fill-rule="evenodd" class="shp1" d="M250.47 311.8C251.8 315.14 251.8 318.47 251.8 321.14L266.47 329.81C275.14 307.8 296.49 293.13 320.5 293.13C345.18 293.13 365.86 307.8 374.53 328.48L387.87 321.14C387.87 317.81 388.53 315.14 389.2 311.8C392.54 299.8 401.21 291.13 408.54 293.13C415.21 294.46 418.55 306.47 415.21 318.47C415.21 319.14 414.55 319.14 414.55 319.81C415.21 319.81 415.21 319.81 415.88 319.81C427.89 323.14 436.56 331.81 434.56 338.48C432.56 345.82 421.22 348.49 408.54 345.15C405.21 344.49 402.54 343.15 399.87 341.82L379.2 353.82C378.53 365.83 374.53 376.5 367.86 385.17L391.2 398.51C393.87 397.18 396.54 395.85 399.87 395.18C412.55 391.84 423.89 395.18 425.89 401.85C427.89 409.19 419.22 417.19 406.54 420.52C406.54 421.19 405.88 421.19 405.88 421.19L405.88 421.86C409.21 434.53 406.54 445.87 399.21 447.87C392.54 449.87 383.87 441.2 380.53 428.53C379.86 425.19 379.2 422.52 379.2 419.19L363.19 409.85C362.52 433.2 343.85 451.21 320.5 451.21C297.16 451.21 278.48 432.53 277.81 409.85L261.14 419.86C260.47 422.52 260.47 425.19 259.8 428.53C256.47 441.2 247.8 449.87 240.46 447.87C233.79 445.87 230.46 433.86 233.79 421.86C233.79 421.19 233.79 421.19 234.46 421.19C233.79 420.52 233.79 420.52 233.12 420.52C221.12 417.19 212.45 409.19 214.45 401.85C216.45 394.51 227.79 391.84 240.46 395.18C243.13 395.85 246.46 397.18 249.13 398.51L273.14 384.51C267.14 376.5 263.14 365.83 262.47 355.16L239.79 341.82C237.13 343.15 234.46 344.49 231.12 345.15C219.12 348.49 207.11 345.82 205.11 338.48C203.78 331.81 211.78 323.14 224.45 319.81L225.12 319.81C225.12 319.14 225.12 319.14 225.12 318.47C221.78 306.47 224.45 294.46 231.79 292.46C239.13 291.13 247.13 299.13 250.47 311.8ZM295.15 331.15C283.15 331.15 273.81 340.48 273.81 351.82C273.81 363.83 283.15 373.17 295.15 373.17C306.49 373.17 315.83 363.83 315.83 351.82C315.83 340.48 306.49 331.15 295.15 331.15ZM346.51 331.15C334.51 331.15 325.17 340.48 325.17 351.82C325.17 363.83 334.51 373.17 346.51 373.17C357.85 373.17 367.19 363.83 367.19 351.82C367.19 340.48 357.85 331.15 346.51 331.15ZM308.49 390.51L331.84 390.51L319.83 373.83L308.49 390.51Z" />
	</g>
	<text id="Informate " style="transform: matrix(1,0,0,1,320,191.64)" >
		<tspan x="0" y="0" class="txt2">Informate</tspan>
	</text>
	<text id="Morir sin conocimento es horribl" style="transform: matrix(1,0,0,1,320,132.04)" >
		<tspan x="0" y="0" class="txt3">Morir sin conocimento es horrible</tspan>
	</text>
</svg>