<svg xmlns="http://www.w3.org/2000/svg" viewBox="0 0 640 480" width="640" height="480">
	<style>
		tspan { white-space:pre }
		.shp0 { fill: #9ffeae } 
		.shp1 { fill: #12ac0d } 
		.txt2 { font-size: 17px;fill: #000000;font-weight: 400;font-family: "EncodeSansSemiExpanded-Regular", "Encode Sans SemiExpanded" } 
		.txt3 { font-size: 32px;fill: #000000;font-weight: 300;font-family: "Amble-LightCondensed", "Amble" } 
	</style>
	<path id="Background" class="shp0" d="M0 0L640 0L640 480L0 480L0 0Z" />
	<g id="flower">
		<path id="Layer" fill-rule="evenodd" class="shp1" d="M443.17 330.67C444.46 395.43 399.13 467.96 318.82 469.25C281.91 469.9 251.47 453.06 228.16 423.27C188.65 372.76 186.71 315.77 215.85 255.54C228.16 267.2 247.59 291.16 268.96 317.71L268.96 267.85C261.83 267.2 257.3 261.37 257.3 254.25C257.3 246.48 263.78 240 271.55 240C279.32 240 285.15 246.48 285.15 254.25C285.15 261.37 280.61 267.2 274.14 267.85L274.14 319.01L275.43 319.66C288.39 289.22 302.63 262.67 319.47 244.53C333.07 257.49 344.73 288.57 357.03 319.01L357.68 319.01L357.68 267.85C351.2 267.2 346.02 261.37 346.02 254.25C346.02 246.48 352.5 240 360.27 240C368.04 240 373.87 246.48 373.87 254.25C373.87 261.37 369.34 267.2 362.86 267.85L362.86 319.01C384.23 289.87 405.6 263.31 422.44 252.3C435.39 269.79 441.87 295.05 442.52 330.67L443.17 330.67ZM311.05 453.06C299.4 421.33 279.32 391.54 253.42 382.47C240.46 378.59 234.63 388.95 246.94 407.73C263.13 431.69 289.68 444.64 311.05 453.06ZM306.52 366.93C300.69 394.78 310.4 423.27 319.47 444C334.37 413.56 340.2 377.94 328.54 353.33C322.06 341.67 311.05 344.27 306.52 366.93ZM399.13 394.78C402.37 381.83 392.65 376 373.87 388.95C349.91 404.49 336.96 431.69 328.54 453.06C360.92 441.41 390.06 420.68 399.13 394.78Z" />
	</g>
	<text id="No es cierto. " style="transform: matrix(1,0,0,1,271,198.08)" >
		<tspan x="0" y="0" class="txt2">No es cierto.</tspan>
	</text>
	<text id="&quot;Nadie sabe nada hasta dedicarse" style="transform: matrix(1,0,0,1,105,112.88)" >
		<tspan x="0" y="0" class="txt3">&quot;Nadie sabe nada hasta dedicarse</tspan>
		<tspan x="0" y="35.84" class="txt3"> a prenderlo&quot;</tspan>
	</text>
</svg>